<?xml version="1.0" encoding="UTF-8" standalone="no"?>
<svg
   xmlns:dc="http://purl.org/dc/elements/1.1/"
   xmlns:cc="http://creativecommons.org/ns#"
   xmlns:rdf="http://www.w3.org/1999/02/22-rdf-syntax-ns#"
   xmlns:svg="http://www.w3.org/2000/svg"
   xmlns="http://www.w3.org/2000/svg"
   xmlns:sodipodi="http://sodipodi.sourceforge.net/DTD/sodipodi-0.dtd"
   xmlns:inkscape="http://www.inkscape.org/namespaces/inkscape"
   width="70.428001"
   version="1.1"
   viewBox="0 0 70.428 29.631"
   id="svg26"
   sodipodi:docname="logo.svg"
   height="29.631001"
   inkscape:version="1.0.2-2 (e86c870879, 2021-01-15)">
  <defs
     id="defs30" />
  <sodipodi:namedview
     pagecolor="#ffffff"
     bordercolor="#666666"
     borderopacity="1"
     objecttolerance="10"
     gridtolerance="10"
     guidetolerance="10"
     inkscape:pageopacity="0"
     inkscape:pageshadow="2"
     inkscape:window-width="1920"
     inkscape:window-height="1009"
     id="namedview28"
     showgrid="false"
     inkscape:zoom="15.732379"
     inkscape:cx="35.214"
     inkscape:cy="11.8155"
     inkscape:window-x="1912"
     inkscape:window-y="-8"
     inkscape:window-maximized="1"
     inkscape:current-layer="svg26"
     inkscape:document-rotation="0" />
  <metadata
     id="metadata2">
    <rdf:RDF>
      <cc:Work
         rdf:about="">
        <dc:format>image/svg+xml</dc:format>
        <dc:type
           rdf:resource="http://purl.org/dc/dcmitype/StillImage" />
        <dc:title></dc:title>
      </cc:Work>
    </rdf:RDF>
  </metadata>
  <g
     transform="translate(-12.93,-51.192)"
     stroke-width="0"
     id="g24">
    <path
       d="m 78.323,65.248 c -3.6439,-4.565 -5.5827,-4.7351 -5.5827,-4.7351 16.398,-1.1894 9.2266,9.3002 5.5827,4.7351 z"
       fill="#bbebce"
       id="path4" />
    <g
       id="g14">
      <path
         d="m 12.93,60.719 v 14.08 h 10.087 v -2.5986 h -6.8981 v -3.4963 h 5.6933 v -2.764 h -5.6933 v -2.8112 h 6.4492 v -2.4101 z"
         id="path6" />
      <path
         transform="matrix(0.26458,0,0,0.26458,12.788,50.774)"
         d="M 57.863,36.816 C 49.1151,36.76046 41.34,38.5719 41.34,38.5719 v 52.053 h 12.32 v -19.465 h 5.8047 c 1.7857,0 12.945,19.287 12.945,19.287 h 12.768 c -0.08928,-4.2857 -12.588,-21.072 -12.588,-21.072 0,0 9.375,-3.7497 9.375,-15.268 0,-14.062 -12.854,-17.22 -24.102,-17.291 z m -1.5469,9.7773 c 4.6205,-0.0042 13.861,0.88365 13.861,8.0488 0,9.5536 -16.428,7.1426 -16.428,7.1426 v -15.088 c 0,0 1.0262,-0.10212 2.5664,-0.10352 z"
         id="path8" />
      <path
         d="m 46.431,61.03 c 0,0 -5.8266,-2.8382 -9.8556,1.3363 -2.7729,2.8731 -1.9711,10.223 1.5368,11.559 3.5079,1.3363 8.6528,-0.20045 8.6528,-0.20045 l -1.0691,-2.5057 c 0,0 -7.5197,3.8083 -7.6506,-3.8086 -0.12395,-7.2155 7.517,-3.9088 7.517,-3.9088 z"
         id="path10" />
      <path
         transform="matrix(0.26458,0,0,0.26458,12.788,50.774)"
         d="m 159.67,48.992 c -16.352,0 -18.121,15.909 -18.121,19.887 0,3.9775 -0.74839,27.775 29.863,19.572 l -0.50586,-3.9766 c 0,0 -23.738,10.1 -23.738,-13.449 h 27.969 c 0,0 0.88504,-22.033 -15.467,-22.033 z m -0.69531,3.9785 c 11.554,0 11.176,13.699 11.176,13.699 h -23.361 c 0,0 0.63193,-13.699 12.186,-13.699 z"
         id="path12" />
    </g>
    <path
       d="m 67.642,61.003 c 0,0 -1.5119,-0.96856 -3.7089,-0.96856 -2.197,0 -4.6775,1.2993 -4.6775,3.4727 0,2.1734 1.3938,3.0002 4.1459,4.1459 2.7521,1.1457 3.4136,2.1143 3.4136,3.5553 0,1.441 -1.0394,2.4568 -3.449,2.4568 -2.4096,0 -3.8743,-0.87407 -3.8743,-0.87407 l -0.47247,1.1103 c 0,0 1.7718,0.92132 4.394,0.92132 2.6222,0 4.7719,-1.2757 4.7719,-3.6853 0,-2.4096 -1.3229,-3.2837 -3.9451,-4.3704 -2.6222,-1.0867 -3.5435,-1.5119 -3.5435,-3.2837 0,-1.7718 1.2585,-2.3365 3.216,-2.3365 1.9575,0 3.3041,0.89551 3.3041,0.89551 z"
       fill="#050505"
       id="path16" />
    <path
       d="m 78.737,62.008 c 0,0 -8.9452,-3.6271 -8.9452,5.1844 0,8.8116 8.1029,6.0712 8.1029,6.0712 v -5.3862 h 1.2993 v 6.0949 c 0,0 -10.678,3.8979 -10.678,-6.5201 0,-10.418 10.654,-6.5437 10.654,-6.5437 z"
       id="path18" />
    <path
       d="m 71.521,51.192 c 2.2618,0 4.3565,1.9524 1.8208,4.2262 -2.372,2.1047 -2.2551,4.3264 -2.2551,4.3264 0,0 -2.8397,-4.1093 -2.8397,-6.047 0,-1.9377 1.5869,-2.5057 3.274,-2.5057 z"
       fill="#006436"
       id="path20" />
    <path
       d="m 71.825,60.229 c 0,0 2.2175,-6.7987 7.897,-6.7987 5.6795,0 4.1658,5.9711 -0.83235,5.5671 -5.5533,-0.44884 -7.0646,1.2316 -7.0646,1.2316 z"
       fill="#008d35"
       id="path22" />
  </g>
</svg>
