<?xml version="1.0" encoding="UTF-8"?>
<svg width="100%" version="1.1" viewBox="0 0 70.428 23.631" xmlns="http://www.w3.org/2000/svg" xmlns:cc="http://creativecommons.org/ns#" xmlns:dc="http://purl.org/dc/elements/1.1/" xmlns:rdf="http://www.w3.org/1999/02/22-rdf-syntax-ns#">
 <metadata>
  <rdf:RDF>
   <cc:Work rdf:about="">
    <dc:format>image/svg+xml</dc:format>
    <dc:type rdf:resource="http://purl.org/dc/dcmitype/StillImage"/>
    <dc:title/>
   </cc:Work>
  </rdf:RDF>
 </metadata>
 <g transform="translate(-12.93 -51.192)" stroke-width="0">
  <path d="m78.323 65.248c-3.6439-4.565-5.5827-4.7351-5.5827-4.7351 16.398-1.1894 9.2266 9.3002 5.5827 4.7351z" fill="#bbebce"/>
  <g>
   <path d="m12.93 60.719v14.08h10.087v-2.5986h-6.8981v-3.4963h5.6933v-2.764h-5.6933v-2.8112h6.4492v-2.4101z"/>
   <path transform="matrix(.26458 0 0 .26458 12.788 50.774)" d="m57.863 36.816c-8.7479-0.05554-16.523 1.7559-16.523 1.7559v52.053h12.32v-19.465h5.8047c1.7857 0 12.945 19.287 12.945 19.287h12.768c-0.089283-4.2857-12.588-21.072-12.588-21.072s9.375-3.7497 9.375-15.268c0-14.062-12.854-17.22-24.102-17.291zm-1.5469 9.7773c4.6205-0.0042 13.861 0.88365 13.861 8.0488 0 9.5536-16.428 7.1426-16.428 7.1426v-15.088s1.0262-0.10212 2.5664-0.10352z"/>
   <path d="m46.431 61.03s-5.8266-2.8382-9.8556 1.3363c-2.7729 2.8731-1.9711 10.223 1.5368 11.559 3.5079 1.3363 8.6528-0.20045 8.6528-0.20045l-1.0691-2.5057s-7.5197 3.8083-7.6506-3.8086c-0.12395-7.2155 7.517-3.9088 7.517-3.9088z"/>
   <path transform="matrix(.26458 0 0 .26458 12.788 50.774)" d="m159.67 48.992c-16.352 0-18.121 15.909-18.121 19.887 0 3.9775-0.74839 27.775 29.863 19.572l-0.50586-3.9766s-23.738 10.1-23.738-13.449h27.969s0.88504-22.033-15.467-22.033zm-0.69531 3.9785c11.554 0 11.176 13.699 11.176 13.699h-23.361s0.63193-13.699 12.186-13.699z"/>
  </g>
  <path d="m67.642 61.003s-1.5119-0.96856-3.7089-0.96856-4.6775 1.2993-4.6775 3.4727 1.3938 3.0002 4.1459 4.1459c2.7521 1.1457 3.4136 2.1143 3.4136 3.5553 0 1.441-1.0394 2.4568-3.449 2.4568-2.4096 0-3.8743-0.87407-3.8743-0.87407l-0.47247 1.1103s1.7718 0.92132 4.394 0.92132c2.6222 0 4.7719-1.2757 4.7719-3.6853s-1.3229-3.2837-3.9451-4.3704c-2.6222-1.0867-3.5435-1.5119-3.5435-3.2837 0-1.7718 1.2585-2.3365 3.216-2.3365s3.3041 0.89551 3.3041 0.89551z" fill="#050505"/>
  <path d="m78.737 62.008s-8.9452-3.6271-8.9452 5.1844c0 8.8116 8.1029 6.0712 8.1029 6.0712v-5.3862h1.2993v6.0949s-10.678 3.8979-10.678-6.5201 10.654-6.5437 10.654-6.5437z"/>
  <path d="m71.521 51.192c2.2618 0 4.3565 1.9524 1.8208 4.2262-2.372 2.1047-2.2551 4.3264-2.2551 4.3264s-2.8397-4.1093-2.8397-6.047c0-1.9377 1.5869-2.5057 3.274-2.5057z" fill="#006436"/>
  <path d="m71.825 60.229s2.2175-6.7987 7.897-6.7987 4.1658 5.9711-0.83235 5.5671c-5.5533-0.44884-7.0646 1.2316-7.0646 1.2316z" fill="#008d35"/>
 </g>
</svg>
